<?xml version="1.0" standalone="no"?>
<!DOCTYPE svg PUBLIC "-//W3C//DTD SVG 20010904//EN"
 "http://www.w3.org/TR/2001/REC-SVG-20010904/DTD/svg10.dtd">
<svg version="1.0" xmlns="http://www.w3.org/2000/svg"
 width="900.000000pt" height="879.000000pt" viewBox="0 0 900.000000 879.000000"
 preserveAspectRatio="xMidYMid meet">
<metadata>
Created by potrace 1.10, written by Peter Selinger 2001-2011
</metadata>
<g transform="translate(0.000000,879.000000) scale(0.100000,-0.100000)"
fill="#000000" stroke="none">
<path d="M4345 7770 c-145 -23 -301 -74 -398 -131 -26 -16 -50 -29 -52 -29 -2
0 -33 -20 -68 -45 -180 -126 -345 -375 -423 -640 -43 -147 -44 -174 -44 -1388
0 -845 3 -1171 12 -1205 36 -148 156 -235 323 -234 154 0 262 71 314 204 14
39 17 160 21 1228 l5 1185 24 60 c39 101 93 196 136 237 140 135 364 157 558
55 76 -40 126 -92 170 -174 57 -110 77 -190 77 -312 1 -247 40 -349 161 -423
38 -24 127 -48 177 -48 56 0 146 26 193 56 54 33 107 102 125 159 22 69 29
268 14 412 -22 213 -73 366 -175 525 -162 250 -401 416 -706 488 -107 25 -341
36 -444 20z"/>
<path d="M4690 5774 c-127 -20 -198 -53 -249 -116 -43 -53 -71 -136 -71 -214
0 -128 47 -226 138 -287 85 -57 59 -56 1282 -57 619 -1 1159 -5 1200 -9 157
-18 247 -76 310 -200 76 -151 96 -247 80 -377 -26 -212 -116 -316 -335 -390
-69 -23 -104 -28 -255 -34 -96 -4 -184 -11 -195 -15 -11 -5 -44 -23 -73 -42
-66 -42 -106 -103 -128 -199 -16 -69 -17 -79 -1 -149 28 -131 95 -207 214
-246 80 -27 344 -26 500 0 308 53 520 178 687 405 183 247 266 484 266 760 0
475 -230 843 -653 1040 -116 54 -157 70 -232 89 -161 41 -151 41 -1325 43
-624 1 -1146 0 -1160 -2z"/>
<path d="M2358 5429 c-364 -44 -681 -253 -847 -559 -89 -165 -132 -287 -155
-443 -20 -135 -20 -218 0 -354 56 -391 255 -664 620 -851 44 -22 123 -55 175
-72 201 -66 130 -63 1394 -67 1201 -4 1217 -4 1316 39 220 93 237 452 28 584
-78 49 -53 48 -1304 54 -1146 6 -1181 7 -1230 26 -86 34 -183 85 -203 107 -33
36 -89 148 -112 226 -30 99 -24 235 14 331 48 120 85 171 159 216 104 64 206
94 324 94 222 0 323 28 396 109 44 49 61 81 77 150 39 164 -44 336 -188 392
-50 20 -79 23 -222 25 -91 1 -199 -2 -242 -7z"/>
<path d="M5544 4740 c-88 -35 -155 -104 -187 -194 -8 -22 -13 -398 -17 -1231
-5 -1122 -7 -1203 -24 -1250 -78 -217 -241 -340 -451 -338 -176 1 -330 82
-402 211 -20 36 -49 103 -65 149 -24 72 -28 100 -28 196 -1 205 -28 305 -102
373 -49 45 -76 59 -149 78 -81 20 -97 20 -178 0 -110 -28 -170 -77 -218 -179
-28 -60 -28 -61 -27 -260 0 -280 28 -415 122 -599 112 -219 260 -361 507 -488
179 -91 364 -138 548 -138 264 0 500 76 678 218 183 145 338 388 415 647 44
150 45 174 42 1414 l-3 1176 -26 56 c-31 66 -83 119 -147 150 -68 33 -216 37
-288 9z"/>
</g>
</svg>
