<?xml version="1.0" ?>
<!DOCTYPE svg  PUBLIC '-//W3C//DTD SVG 1.1//EN'  'http://www.w3.org/Graphics/SVG/1.1/DTD/svg11.dtd'>
<!-- Uploaded to: SVG Repo, www.svgrepo.com, Generator: SVG Repo Mixer Tools -->
<svg fill="#000000" width="800px" height="800px" viewBox="0 0 100 100" enable-background="new 0 0 100 100" id="Layer_1" version="1.1" xml:space="preserve" xmlns="http://www.w3.org/2000/svg" xmlns:xlink="http://www.w3.org/1999/xlink">
<g>
<path d="M38.7,82.4h22.6c7.7,0,14-6.3,14-14V46.1c0-6.1-4-11.4-9.5-13.2V22.7c0-2.8-2.3-5.1-5.1-5.1H39.3c-2.8,0-5.1,2.3-5.1,5.1   v10.2c-5.5,1.9-9.5,7.1-9.5,13.2v22.3C24.7,76.1,31,82.4,38.7,82.4z M38.2,22.7c0-0.6,0.5-1.1,1.1-1.1h21.5c0.6,0,1.1,0.5,1.1,1.1   v9.4c-0.2,0-0.3,0-0.5,0H38.7c-0.2,0-0.3,0-0.5,0V22.7z M28.7,46.1c0-4.7,3.2-8.6,7.6-9.7h27.4c4.4,1.1,7.6,5,7.6,9.7v22.3   c0,5.5-4.5,10-10,10H38.7c-5.5,0-10-4.5-10-10V46.1z"/>
<polygon points="48,67 52,67 52,59.3 59.8,59.3 59.8,55.3 52,55.3 52,47.5 48,47.5 48,55.3 40.2,55.3 40.2,59.3 48,59.3  "/>
</g>
</svg>